<svg height="511pt" viewBox="0 -61 511.99969 511" width="511pt" xmlns="http://www.w3.org/2000/svg"><path d="m511.980469 28.25c-.265625-7.675781-3.503907-14.785156-9.117188-20.023438-5.617187-5.242187-12.945312-7.976562-20.605469-7.707031-16.488281.570313-33.316406 3.414063-50.019531 8.453125-42.136719 12.710938-67.824219 44.054688-76.347656 93.152344-6.476563 37.304688-2.464844 79.511719 1.421875 120.347656.273438 2.878906.570312 5.859375.875 8.917969 2.15625 21.632813 4.601562 46.152344 2.070312 65.976563-3.445312 27.007812-14.578124 31.75-22.652343 32.96875-8.78125 1.324218-20.597657-1.414063-27.042969-21.972657-6.601562-21.046875-6.570312-53.214843-6.539062-84.34375.035156-36.523437.066406-74.289062-9.847657-104.90625-6.675781-20.601562-17.566406-36.550781-32.375-47.402343-14.824219-10.863282-33.230469-16.371094-54.710937-16.371094-18.296875 0-34.511719 4.421875-48.199219 13.140625-17.929687 11.425781-30.964844 29.964843-38.746094 55.101562-10.046875 32.476563-10.65625 72.167969-11.242187 110.554688-.464844 30.273437-.90625 58.871093-5.941406 78.402343-4.261719 16.542969-8.367188 16.613282-11.964844 16.671876-1.078125.015624-2.5625.039062-5.449219-2.800782-4.773437-4.691406-16.636719-20.945312-23.691406-70.445312-4-28.0625-4.339844-53.121094-4.367188-56.476563.007813-.121093.011719-.246093.011719-.367187 0-.160156-.007812-.320313-.015625-.480469-.257813-15.628906-13.054687-28.265625-28.742187-28.265625-15.847657.003906-28.742188 12.898438-28.742188 28.75 0 1.222656.0546875 30.347656 4.863281 64.390625 6.980469 49.453125 20.5625 84.402344 40.367188 103.878906 13.15625 12.941407 29.289062 19.597657 46.699219 19.300781 14.378906-.238281 27.054687-4.316406 37.667968-12.117187 13.707032-10.078125 23.476563-26.125 29.035156-47.6875 6.742188-26.15625 7.234376-58.074219 7.75-91.875.527344-34.335937 1.074219-69.839844 8.683594-94.441406 7.921875-25.601563 20.164063-27.746094 32.023438-27.746094 18.410156 0 26.582031 6.058594 32.394531 24 7.113281 21.957031 7.078125 55.101563 7.046875 87.15625-.003906 4.230469-.027344 8.511719-.054688 12.824219-.191406 32.085937-.386718 65.265625 7.78125 91.308594 12.738282 40.617187 40.109376 61.210937 81.347657 61.210937 24.0625 0 43.316406-7.753906 57.21875-23.042969 30.007812-32.996094 27.183593-91.832031 21.71875-149.269531-3.527344-37.046875-7.171875-75.351563-2.011719-105.058594 4.75-27.363281 15.609375-41.703125 36.308594-47.949219 11.960937-3.605468 23.875-5.640624 35.410156-6.039062 7.671875-.265625 14.785156-3.503906 20.023438-9.117188 5.234374-5.613281 7.972656-12.929687 7.707031-20.601562zm0 0" fill="#ffa799"/><g fill="#ff9084"><path d="m234.828125 71.710938c14.808594 10.851562 25.703125 26.800781 32.375 47.40625 9.917969 30.613281 9.882813 68.382812 9.847656 104.90625-.03125 31.128906-.0625 63.296874 6.539063 84.339843 6.449218 20.558594 18.261718 23.296875 27.042968 21.972657 3.222657-.484376 6.933594-1.539063 10.449219-4.339844-4.050781-3.355469-7.773437-8.871094-10.523437-17.632813-6.601563-21.042969-6.566406-53.210937-6.539063-84.339843.035157-36.523438.070313-74.292969-9.84375-104.90625-6.675781-20.605469-17.566406-36.554688-32.375-47.40625-14.824219-10.863282-33.230469-16.371094-54.710937-16.371094-4.542969 0-8.957032.273437-13.234375.816406 15.671875 1.886719 29.417969 7.085938 40.972656 15.554688zm0 0"/><path d="m180.117188 112.832031c-11.859376 0-24.097657 2.140625-32.023438 27.742188-7.609375 24.605469-8.15625 60.109375-8.683594 94.445312-.515625 33.796875-1.007812 65.714844-7.75 91.871094-5.554687 21.566406-15.328125 37.609375-29.035156 47.6875-7.304688 5.371094-15.589844 8.976563-24.734375 10.78125 4.5625.953125 9.25 1.417969 14.039063 1.335937 14.378906-.238281 27.054687-4.3125 37.667968-12.117187 13.707032-10.078125 23.476563-26.121094 29.035156-47.683594 6.742188-26.15625 7.234376-58.078125 7.75-91.875.527344-34.335937 1.074219-69.839843 8.683594-94.441406 5.058594-16.351563 11.878906-23.125 19.238282-25.894531-3.929688-1.289063-8.582032-1.851563-14.1875-1.851563zm0 0"/><path d="m460.179688 61.058594c-11.535157.402344-26.351563-.65625-38.308594 2.953125-20.703125 6.246093-31.5625 20.585937-36.3125 47.949219-5.160156 29.703124-1.515625 68.011718 2.011718 105.058593 5.464844 57.4375 8.289063 116.269531-21.71875 149.269531-11.261718 12.382813-26.03125 19.820313-44.023437 22.199219 4.40625.554688 8.996094.84375 13.777344.84375 24.0625 0 43.316406-7.753906 57.21875-23.042969 30.007812-33 27.183593-91.832031 21.71875-149.269531-3.527344-37.046875-7.171875-75.355469-2.011719-105.058593 4.75-27.363282 15.609375-41.703126 36.308594-47.949219 3.828125-1.15625 7.648437-2.128907 11.457031-2.960938-.039063.003907-.074219.007813-.117187.007813zm0 0"/><path d="m511.980469 28.25c-.265625-7.675781-3.503907-14.785156-9.117188-20.023438-5.617187-5.242187-12.945312-7.976562-20.605469-7.707031-5.636718.195313-11.316406.675781-17.015624 1.398438 3.914062 1.285156 7.546874 3.410156 10.648437 6.308593 5.613281 5.238282 8.851563 12.347657 9.117187 20.023438.269532 7.671875-1.4375 16.945312-6.675781 22.558594-3.734375 4.003906-7.476562 7.367187-12.097656 9.070312 6.074219-1.058594 12.09375-1.703125 18.015625-1.90625 7.671875-.265625 14.785156-3.503906 20.023438-9.117187 5.234374-5.617188 7.972656-12.933594 7.707031-20.605469zm0 0"/></g><path d="m444.046875 57.519531-17.019531-38.992187c-.804688-1.847656-2.320313-3.289063-4.199219-4.003906-1.886719-.71875-3.976563-.644532-5.804687.195312-29.941407 13.8125-49.671876 39.246094-58.652344 75.601562-.929688 3.757813 1.15625 7.605469 4.816406 8.875l40.378906 14.015626c4.207032 1.464843 8.878906-1.191407 9.789063-5.539063 4.398437-21.003906 12.753906-33.46875 27.089843-40.414063 3.621094-1.75 5.210938-6.050781 3.601563-9.738281zm0 0" fill="#ff6c55"/><path d="m73.679688 305.792969c-4.964844-12.859375-8.945313-29.621094-11.824219-49.824219-.503907-3.535156-.976563-7.210938-1.402344-10.929688-.457031-3.988281-3.984375-6.914062-7.988281-6.617187l-42.425782 3.089844c-2.027343.148437-3.914062 1.117187-5.214843 2.683593-1.300781 1.566407-1.910157 3.59375-1.683594 5.621094.519531 4.683594 1.101563 9.292969 1.722656 13.699219 2.882813 20.425781 6.9375 38.585937 12.046875 53.976563 1.03125 3.101562 3.925782 5.132812 7.105469 5.132812.382813 0 .769531-.03125 1.160156-.089844l42.671875-6.640625c2.238282-.347656 4.199219-1.691406 5.335938-3.65625 1.132812-1.960937 1.316406-4.332031.496094-6.445312zm0 0" fill="#ff6c55"/><path d="m89.265625 328.996094c-.914063-.292969-2.09375-.984375-3.71875-2.582032-4.773437-4.691406-16.636719-20.945312-23.691406-70.445312-4-28.0625-4.335938-53.121094-4.367188-56.476562.007813-.121094.011719-.246094.011719-.367188 0-.160156-.003906-.320312-.015625-.480469-.257813-15.628906-13.054687-28.265625-28.742187-28.265625-4.867188 0-9.457032 1.222656-13.480469 3.371094 8.933593 4.769531 15.074219 14.121094 15.25 24.894531.011719.160157.015625.320313.015625.480469 0 .121094-.003906.246094-.007813.367188.023438 3.355468.363281 28.414062 4.363281 56.476562 7.054688 49.5 18.917969 65.753906 23.691407 70.445312 0 0 10.894531 10.042969 30.691406 2.582032zm0 0" fill="#ff9084"/><path d="m61.855469 255.96875c-.503907-3.535156-.976563-7.210938-1.402344-10.925781-.457031-3.992188-3.984375-6.917969-7.988281-6.621094l-19.546875 1.425781c.53125 5.164063 1.175781 10.582032 1.964843 16.121094 4.902344 34.40625 12.128907 52.742188 17.683594 62.304688l15.277344-2.378907c2.238281-.347656 4.203125-1.691406 5.335938-3.652343 1.132812-1.964844 1.316406-4.335938.5-6.449219-4.964844-12.859375-8.945313-29.621094-11.824219-49.824219zm0 0" fill="#ff544d"/><path d="m421.871094 64.011719c-19.484375 5.878906-30.25 18.933593-35.410156 43.265625l17.105468 5.9375c2.472656.859375 5.300782.269531 7.296875-1.402344 2.453125-2.042969 2.753907-5.152344 3.398438-8.074219.519531-2.363281 1.230469-4.703125 1.996093-6.996093 3.878907-12.191407 11.519532-22.945313 23.03125-28.898438 1.355469-.703125 2.648438-1.328125 3.644532-2.527344.957031-1.152344 1.550781-2.585937 1.699218-4.074218-7.746093.144531-15.746093.652343-22.761718 2.769531zm0 0" fill="#ff544d"/></svg>