<svg id="Flat" height="512" viewBox="0 0 512 512" width="512" xmlns="http://www.w3.org/2000/svg"><path d="m24 234.378 256 85.622s-23.273-62.27-104.727-85.622-151.273 0-151.273 0z" fill="#dadcde"/><path d="m24 405.622 256-85.622s-23.273 62.27-104.727 85.622-151.273 0-151.273 0z" fill="#dadcde"/><path d="m408 224c-76.43 5.05-136 46.39-136 96s59.57 90.95 136 96h64v-32h-64c-58.71-4.17-104-31.54-104-64s45.29-59.83 104-64h64v-32z" fill="#eb423f"/><path d="m424 224h48v32h-48z" fill="#95573a"/><path d="m424 384h48v32h-48z" fill="#95573a"/><circle cx="288" cy="320" fill="#d0d2d4" r="32"/><circle cx="288" cy="320" fill="#b6b9ba" r="8"/><rect fill="#eb423f" height="32" rx="16" transform="matrix(0 -1 1 0 72 872)" width="64" x="440" y="384"/><rect fill="#eb423f" height="32" rx="16" transform="matrix(0 -1 1 0 232 712)" width="64" x="440" y="224"/><path d="m224 80h32a0 0 0 0 1 0 0v48a64 64 0 0 1 -64 64h-32a0 0 0 0 1 0 0v-48a64 64 0 0 1 64-64z" fill="#2e9163"/><path d="m64 80h32a64 64 0 0 1 64 64v48a0 0 0 0 1 0 0h-32a64 64 0 0 1 -64-64v-48a0 0 0 0 1 0 0z" fill="#35a872" transform="matrix(-1 0 0 -1 224 272)"/><path d="m166.642 196.544 47.432-55.337a8 8 0 0 0 -12.148-10.414l-41.926 48.914-41.926-48.914a8 8 0 0 0 -12.148 10.414l44.585 52.015a127.636 127.636 0 0 0 -9.444 34.743c-2.892 22.178-1.782 56.822 19.94 95.92a8 8 0 0 0 13.986-7.77c-15.594-28.069-21.7-56.778-18.156-85.328 2.348-18.898 8.387-31.487 9.805-34.243z" fill="#20754d"/></svg>